<svg width="49" height="34" viewBox="0 0 49 34" fill="none" xmlns="http://www.w3.org/2000/svg">
<path d="M45.6535 2.86686C44.8879 2.234 43.9033 1.92932 42.9141 2.01918C41.9249 2.10903 41.0113 2.58616 40.3723 3.3466L24.5002 22.3903L8.62789 3.34691C7.99072 2.58349 7.07638 2.10444 6.08601 2.01515C5.09563 1.92587 4.11036 2.23367 3.34692 2.87083C2.58349 3.50799 2.10444 4.42233 2.01515 5.4127C1.92587 6.40306 2.23367 7.38834 2.87083 8.15176L21.6217 30.6524C21.9734 31.0742 22.4136 31.4135 22.911 31.6464C23.4084 31.8793 23.9509 32 24.5002 32C25.0494 32 25.592 31.8793 26.0894 31.6464C26.5868 31.4135 27.027 31.0742 27.3787 30.6524L46.1295 8.15145C46.7665 7.38724 47.0741 6.40149 46.9849 5.41066C46.8956 4.41984 46.4168 3.50493 45.6535 2.86686Z" stroke="#FFBB00" stroke-width="4"/>
</svg>
