<svg width="79" height="79" viewBox="0 0 79 79" fill="none" xmlns="http://www.w3.org/2000/svg">
<path d="M26.6368 53.9687L48.7759 27.4643C48.9519 27.2399 49.1704 27.0524 49.4191 26.9124C49.6746 26.7685 49.9567 26.6778 50.2483 26.6459C50.5399 26.614 50.8349 26.6415 51.1156 26.7267C51.3963 26.8119 51.6568 26.9531 51.8814 27.1418C52.106 27.3304 52.2901 27.5626 52.4225 27.8244C52.555 28.0861 52.633 28.3719 52.652 28.6647C52.6709 28.9574 52.6303 29.2509 52.5328 29.5275C52.4382 29.7956 52.2919 30.0424 52.1024 30.254L28.4492 58.5804L28.4465 58.5837C28.252 58.8146 28.0116 59.0024 27.7404 59.1351C27.4693 59.2679 27.1735 59.3426 26.8719 59.3547L26.852 59.3555H26.832H26.7879H26.7852V58.3555C26.6309 58.3564 26.478 58.3268 26.3353 58.2685C26.1925 58.2102 26.0626 58.1242 25.9531 58.0156L26.6368 53.9687ZM26.6368 53.9687L11.7506 39.0825C11.5563 38.8741 11.3228 38.706 11.0634 38.5877C10.7957 38.4656 10.506 38.3992 10.2119 38.3925C9.91774 38.3858 9.62532 38.4389 9.35234 38.5486C9.07936 38.6583 8.83151 38.8224 8.62383 39.0308C8.41617 39.2392 8.25301 39.4876 8.14425 39.761C8.0355 40.0344 7.98342 40.327 7.99118 40.6211C7.99894 40.9152 8.06637 41.2047 8.18938 41.4719C8.30829 41.7302 8.47672 41.9626 8.68505 42.1559L26.6368 53.9687ZM60.0669 27.4643L37.9278 53.9687L37.2441 58.0156C37.3536 58.1242 37.4835 58.2102 37.6263 58.2685C37.7691 58.3268 37.9219 58.3564 38.0762 58.3555V59.3555H38.079H38.123H38.143L38.1629 59.3547C38.4645 59.3426 38.7603 59.2679 39.0315 59.1351C39.3026 59.0024 39.543 58.8146 39.7375 58.5837L39.7402 58.5804L63.3934 30.254C63.5829 30.0424 63.7292 29.7956 63.8238 29.5275C63.9214 29.2509 63.9619 28.9574 63.943 28.6647C63.924 28.3719 63.846 28.0861 63.7136 27.8244C63.5811 27.5626 63.3971 27.3304 63.1724 27.1418C62.9478 26.9531 62.6873 26.8119 62.4066 26.7267C62.1259 26.6415 61.8309 26.614 61.5394 26.6459C61.2478 26.6778 60.9657 26.7685 60.7101 26.9124C60.4614 27.0524 60.2429 27.2399 60.0669 27.4643ZM3.17188 78H68.7969C69.3729 78 69.9253 77.7712 70.3326 77.3639C70.7399 76.9566 70.9688 76.4041 70.9688 75.8281V10.2031C70.9688 9.62712 70.7399 9.07469 70.3326 8.66737C69.9253 8.26007 69.3729 8.03125 68.7969 8.03125H3.17188C2.59586 8.03125 2.04343 8.26007 1.63613 8.66738C1.22882 9.07468 1 9.62711 1 10.2031V75.8281C1 76.4041 1.22882 76.9566 1.63612 77.3639C2.04344 77.7712 2.59587 78 3.17188 78ZM66.625 12.375V73.6562H5.34375V12.375H66.625ZM74.2924 71.5045C74.6997 71.9118 75.2521 72.1406 75.8281 72.1406C76.4041 72.1406 76.9566 71.9118 77.3639 71.5045C77.7712 71.0972 78 70.5448 78 69.9688V3.17188C78 2.59587 77.7712 2.04344 77.3639 1.63612C76.9566 1.22882 76.4041 1 75.8281 1H9.03125C8.45523 1 7.90281 1.22882 7.4955 1.63613C7.0882 2.04343 6.85938 2.59586 6.85938 3.17188C6.85938 3.74789 7.0882 4.30032 7.4955 4.70762C7.90281 5.11493 8.45523 5.34375 9.03125 5.34375H73.6562V69.9688C73.6562 70.5448 73.8851 71.0972 74.2924 71.5045Z" fill="#FFBB00" stroke="#FFBB00" stroke-width="2"/>
</svg>
